<svg width="40" height="40" viewBox="0 0 40 40" fill="none" xmlns="http://www.w3.org/2000/svg">
<path d="M0 5.71429C0 2.55837 2.55837 0 5.71429 0H34.2857C37.4416 0 40 2.55837 40 5.71429V34.2857C40 37.4416 37.4416 40 34.2857 40H5.71429C2.55837 40 0 37.4416 0 34.2857V5.71429Z" fill="white"/>
<path d="M5.71429 0C2.55837 0 0 2.55837 0 5.71429V34.2857C0 37.4416 2.55837 40 5.71429 40H6.26921C6.39776 39.8351 6.57887 39.7091 6.7962 39.6503C7.00312 39.5943 7.36191 39.4074 7.83048 39.0223C8.28225 38.651 8.77641 38.1447 9.25543 37.5372C10.2197 36.3141 11.0596 34.7618 11.3942 33.2119C11.5954 32.2799 11.3105 31.0509 10.6749 29.6129C10.1222 28.3626 9.37739 27.1079 8.68772 25.9462L8.68751 25.9459L8.68637 25.9439C8.59818 25.7954 8.5109 25.6484 8.42504 25.5031C7.54459 24.0131 7.17402 21.7711 8.02384 19.7798C8.86333 17.8127 10.7945 16.3024 14.0424 15.9103C15.4697 12.8699 18.9862 11.3421 22.1948 12.5029C25.4762 13.6901 27.2058 17.2444 26.2182 20.5587C31.5139 25.3947 35.3631 33.1361 36.0435 39.7246C38.3393 38.9831 40 36.8284 40 34.2857V5.71429C40 2.55837 37.4416 0 34.2857 0H5.71429Z" fill="#0B6908"/>
<path fill-rule="evenodd" clip-rule="evenodd" d="M34.0612 40C33.4343 33.7017 29.5908 26.0835 24.3767 21.5987C23.984 21.2609 23.9179 20.6845 24.2083 20.2687C24.2098 20.2645 24.2112 20.2602 24.2127 20.2559C24.2138 20.2529 24.2149 20.2498 24.216 20.2468C25.0826 17.8513 23.8603 15.2324 21.5144 14.3836C19.1685 13.5349 16.5534 14.7655 15.6867 17.161C15.593 17.42 15.4034 17.6167 15.1725 17.7254C15.0503 17.7936 14.9117 17.837 14.7631 17.8485C11.7272 18.0833 10.3908 19.3289 9.86333 20.5648C9.31676 21.8455 9.5268 23.3602 10.0895 24.3849C10.5092 24.8342 11.0242 25.3 11.6122 25.6832C12.8546 26.4928 14.3592 26.9008 16.0081 26.1014C16.2921 25.9637 16.6339 26.0823 16.7716 26.3663C16.9093 26.6502 16.7907 26.9921 16.5067 27.1297C14.6715 28.0195 12.9742 27.7152 11.606 27.0026C11.9265 27.59 12.2356 28.1968 12.5042 28.8043C13.1757 30.3235 13.6908 32.0517 13.3492 33.634C12.9345 35.5543 11.9268 37.3792 10.826 38.7754C10.4724 39.2239 10.1028 39.6364 9.73085 40H13.7683C14.0522 39.3549 14.4203 38.8091 14.8464 38.3551C15.5721 37.5818 16.4235 37.1214 17.2052 36.885C17.2704 34.827 17.9379 33.3268 18.9035 32.2979C19.9924 31.1377 21.3642 30.6818 22.359 30.6301C22.9893 30.5974 23.5269 31.0818 23.5596 31.7122C23.5924 32.3425 23.1079 32.88 22.4776 32.9128C22.0057 32.9373 21.2118 33.1785 20.5702 33.8621C19.9569 34.5156 19.3799 35.6847 19.502 37.7615C19.5391 38.3916 19.0584 38.9324 18.4283 38.9695C18.4252 38.9697 18.4221 38.9698 18.419 38.97C17.947 38.9949 17.154 39.2364 16.5131 39.9193C16.4886 39.9454 16.4642 39.9723 16.4398 40H34.0612ZM20.1145 21.9584C21.9923 21.9584 23.5145 20.4362 23.5145 18.5584C23.5145 16.6806 21.9923 15.1584 20.1145 15.1584C18.2368 15.1584 16.7145 16.6806 16.7145 18.5584C16.7145 20.4362 18.2368 21.9584 20.1145 21.9584Z" fill="#62BF28"/>
<path d="M18.4595 19.3453C19.2024 19.9195 20.27 19.7828 20.8442 19.0399C20.8637 19.0148 20.8823 18.9892 20.9001 18.9634C20.5743 19.1338 20.1652 19.1109 19.8552 18.8712C19.4307 18.5431 19.3526 17.933 19.6807 17.5086C20.0088 17.0841 20.6189 17.006 21.0434 17.3341C21.0537 17.3421 21.0638 17.3502 21.0738 17.3585C20.9645 17.0898 20.785 16.8454 20.5389 16.6552C19.7961 16.081 18.7284 16.2177 18.1542 16.9606C17.58 17.7034 17.7167 18.7711 18.4595 19.3453Z" fill="black"/>
</svg>
