<svg width="134" height="40" viewBox="0 0 134 40" fill="none" xmlns="http://www.w3.org/2000/svg">
<path d="M0 5.71429C0 2.55837 2.55837 0 5.71429 0H34.2857C37.4416 0 40 2.55837 40 5.71429V34.2857C40 37.4416 37.4416 40 34.2857 40H5.71429C2.55837 40 0 37.4416 0 34.2857V5.71429Z" fill="white"/>
<path d="M5.71429 0C2.55837 0 0 2.55837 0 5.71429V34.2857C0 37.4416 2.55837 40 5.71429 40H6.26921C6.39776 39.8351 6.57887 39.7091 6.7962 39.6503C7.00312 39.5943 7.36191 39.4074 7.83048 39.0223C8.28225 38.651 8.77641 38.1447 9.25543 37.5372C10.2197 36.3141 11.0596 34.7618 11.3942 33.2119C11.5954 32.2799 11.3105 31.0509 10.6749 29.6129C10.1222 28.3626 9.37739 27.1079 8.68772 25.9462L8.68751 25.9459L8.68637 25.9439C8.59818 25.7954 8.5109 25.6484 8.42504 25.5031C7.54459 24.0131 7.17402 21.7711 8.02384 19.7798C8.86333 17.8127 10.7945 16.3024 14.0424 15.9103C15.4697 12.8699 18.9862 11.3421 22.1948 12.5029C25.4762 13.6901 27.2058 17.2444 26.2182 20.5587C31.5139 25.3947 35.3631 33.1361 36.0435 39.7246C38.3393 38.9831 40 36.8284 40 34.2857V5.71429C40 2.55837 37.4416 0 34.2857 0H5.71429Z" fill="#0B6908"/>
<path fill-rule="evenodd" clip-rule="evenodd" d="M34.0612 40C33.4343 33.7017 29.5908 26.0835 24.3767 21.5987C23.984 21.2609 23.9179 20.6845 24.2083 20.2687C24.2098 20.2645 24.2112 20.2602 24.2127 20.2559C24.2138 20.2529 24.2149 20.2498 24.216 20.2468C25.0826 17.8513 23.8603 15.2324 21.5144 14.3836C19.1685 13.5349 16.5534 14.7655 15.6867 17.161C15.593 17.42 15.4034 17.6167 15.1725 17.7254C15.0503 17.7936 14.9117 17.837 14.7631 17.8485C11.7272 18.0833 10.3908 19.3289 9.86333 20.5648C9.31676 21.8455 9.5268 23.3602 10.0895 24.3849C10.5092 24.8342 11.0242 25.3 11.6122 25.6832C12.8546 26.4928 14.3592 26.9008 16.0081 26.1014C16.2921 25.9637 16.6339 26.0823 16.7716 26.3663C16.9093 26.6502 16.7907 26.9921 16.5067 27.1297C14.6715 28.0195 12.9742 27.7152 11.606 27.0026C11.9265 27.59 12.2356 28.1968 12.5042 28.8043C13.1757 30.3235 13.6908 32.0517 13.3492 33.634C12.9345 35.5543 11.9268 37.3792 10.826 38.7754C10.4724 39.2239 10.1028 39.6364 9.73085 40H13.7683C14.0522 39.3549 14.4203 38.8091 14.8464 38.3551C15.5721 37.5818 16.4235 37.1214 17.2052 36.885C17.2704 34.827 17.9379 33.3268 18.9035 32.2979C19.9924 31.1377 21.3642 30.6818 22.359 30.6301C22.9893 30.5974 23.5269 31.0818 23.5596 31.7122C23.5924 32.3425 23.1079 32.88 22.4776 32.9128C22.0057 32.9373 21.2118 33.1785 20.5702 33.8621C19.9569 34.5156 19.3799 35.6847 19.502 37.7615C19.5391 38.3916 19.0584 38.9324 18.4283 38.9695C18.4252 38.9697 18.4221 38.9698 18.419 38.97C17.947 38.9949 17.154 39.2364 16.5131 39.9193C16.4886 39.9454 16.4642 39.9723 16.4398 40H34.0612ZM20.1145 21.9584C21.9923 21.9584 23.5145 20.4362 23.5145 18.5584C23.5145 16.6806 21.9923 15.1584 20.1145 15.1584C18.2368 15.1584 16.7145 16.6806 16.7145 18.5584C16.7145 20.4362 18.2368 21.9584 20.1145 21.9584Z" fill="#62BF28"/>
<path d="M18.4595 19.3453C19.2024 19.9195 20.27 19.7828 20.8442 19.0399C20.8637 19.0148 20.8823 18.9892 20.9001 18.9634C20.5743 19.1338 20.1652 19.1109 19.8552 18.8712C19.4307 18.5431 19.3526 17.933 19.6807 17.5086C20.0088 17.0841 20.6189 17.006 21.0434 17.3341C21.0537 17.3421 21.0638 17.3502 21.0738 17.3585C20.9645 17.0898 20.785 16.8454 20.5389 16.6552C19.7961 16.081 18.7284 16.2177 18.1542 16.9606C17.58 17.7034 17.7167 18.7711 18.4595 19.3453Z" fill="black"/>
<path d="M53.2912 27V13.9091H55.6626V25.0121H61.4283V27H53.2912ZM67.7308 27.1918C66.7464 27.1918 65.8963 26.9872 65.1804 26.5781C64.4688 26.1648 63.9212 25.581 63.5376 24.8267C63.1541 24.0682 62.9624 23.1754 62.9624 22.1484C62.9624 21.1385 63.1541 20.2521 63.5376 19.4893C63.9254 18.7223 64.4666 18.1257 65.1612 17.6996C65.8558 17.2692 66.6719 17.054 67.6094 17.054C68.2145 17.054 68.7855 17.152 69.3224 17.348C69.8636 17.5398 70.3409 17.8381 70.7543 18.2429C71.1719 18.6477 71.5 19.1634 71.7386 19.7898C71.9773 20.4119 72.0966 21.1534 72.0966 22.0142V22.7237H64.049V21.1641H69.8786C69.8743 20.7209 69.7784 20.3267 69.5909 19.9815C69.4034 19.6321 69.1413 19.3572 68.8047 19.157C68.4723 18.9567 68.0845 18.8565 67.6413 18.8565C67.1683 18.8565 66.7528 18.9716 66.3949 19.2017C66.0369 19.4276 65.7578 19.7259 65.5575 20.0966C65.3615 20.4631 65.2614 20.8658 65.2571 21.3047V22.6662C65.2571 23.2372 65.3615 23.7273 65.5703 24.1364C65.7791 24.5412 66.071 24.8523 66.446 25.0696C66.821 25.2827 67.2599 25.3892 67.7628 25.3892C68.0994 25.3892 68.4041 25.3423 68.6768 25.2486C68.9496 25.1506 69.1861 25.0078 69.3864 24.8203C69.5866 24.6328 69.7379 24.4006 69.8402 24.1236L72.0007 24.3665C71.8643 24.9375 71.6044 25.4361 71.2209 25.8622C70.8416 26.2841 70.3558 26.6122 69.7635 26.8466C69.1712 27.0767 68.4936 27.1918 67.7308 27.1918ZM76.8794 27.1982C76.2573 27.1982 75.6969 27.0874 75.1983 26.8658C74.704 26.6399 74.312 26.3075 74.0222 25.8686C73.7367 25.4297 73.5939 24.8885 73.5939 24.245C73.5939 23.6911 73.6962 23.233 73.9007 22.8707C74.1053 22.5085 74.3844 22.2188 74.7381 22.0014C75.0918 21.7841 75.4902 21.62 75.9334 21.5092C76.3809 21.3942 76.8432 21.3111 77.3205 21.2599C77.8958 21.2003 78.3624 21.147 78.7203 21.1001C79.0783 21.049 79.3382 20.9723 79.5002 20.87C79.6664 20.7635 79.7495 20.5994 79.7495 20.3778V20.3395C79.7495 19.858 79.6067 19.4851 79.3212 19.2209C79.0357 18.9567 78.6245 18.8246 78.0875 18.8246C77.5208 18.8246 77.0712 18.9482 76.7388 19.1953C76.4107 19.4425 76.1891 19.7344 76.074 20.071L73.9135 19.7642C74.084 19.1676 74.3652 18.669 74.7573 18.2685C75.1493 17.8636 75.6287 17.5611 76.1955 17.3608C76.7623 17.1562 77.3887 17.054 78.0748 17.054C78.5478 17.054 79.0186 17.1094 79.4874 17.2202C79.9561 17.331 80.3844 17.5142 80.7722 17.7699C81.16 18.0213 81.4711 18.3643 81.7054 18.799C81.9441 19.2337 82.0634 19.777 82.0634 20.429V27H79.839V25.6513H79.7623C79.6216 25.924 79.4235 26.1797 79.1678 26.4183C78.9164 26.6527 78.5989 26.8423 78.2154 26.9872C77.8361 27.1278 77.3908 27.1982 76.8794 27.1982ZM77.4803 25.4979C77.9448 25.4979 78.3475 25.4062 78.6884 25.223C79.0293 25.0355 79.2914 24.7884 79.4746 24.4815C79.6621 24.1747 79.7559 23.8402 79.7559 23.478V22.321C79.6834 22.3807 79.5598 22.4361 79.3851 22.4872C79.2147 22.5384 79.0229 22.5831 78.8098 22.6214C78.5968 22.6598 78.3858 22.6939 78.177 22.7237C77.9682 22.7536 77.7871 22.7791 77.6337 22.8004C77.2885 22.8473 76.9796 22.924 76.7069 23.0305C76.4341 23.1371 76.2189 23.2862 76.0613 23.478C75.9036 23.6655 75.8248 23.9084 75.8248 24.2067C75.8248 24.6328 75.9803 24.9545 76.2914 25.1719C76.6025 25.3892 76.9988 25.4979 77.4803 25.4979ZM84.3901 30.6818V17.1818H86.6657V18.8054H86.7999C86.9192 18.5668 87.0875 18.3132 87.3049 18.0447C87.5222 17.772 87.8162 17.5398 88.187 17.348C88.5577 17.152 89.0307 17.054 89.606 17.054C90.3645 17.054 91.0485 17.2479 91.6578 17.6357C92.2715 18.0192 92.7573 18.5881 93.1152 19.3423C93.4775 20.0923 93.6586 21.0128 93.6586 22.1037C93.6586 23.1818 93.4817 24.098 93.128 24.8523C92.7743 25.6065 92.2928 26.1818 91.6834 26.5781C91.074 26.9744 90.3837 27.1726 89.6124 27.1726C89.0499 27.1726 88.5833 27.0788 88.2125 26.8913C87.8418 26.7038 87.5435 26.478 87.3176 26.2138C87.0961 25.9453 86.9235 25.6918 86.7999 25.4531H86.704V30.6818H84.3901ZM86.6593 22.0909C86.6593 22.7259 86.7488 23.282 86.9277 23.7592C87.111 24.2365 87.373 24.6094 87.714 24.8778C88.0591 25.142 88.4767 25.2741 88.9668 25.2741C89.4782 25.2741 89.9064 25.1378 90.2516 24.8651C90.5968 24.5881 90.8567 24.2109 91.0314 23.7337C91.2104 23.2521 91.2999 22.7045 91.2999 22.0909C91.2999 21.4815 91.2125 20.9403 91.0378 20.4673C90.8631 19.9943 90.6032 19.6236 90.258 19.3551C89.9128 19.0866 89.4824 18.9524 88.9668 18.9524C88.4725 18.9524 88.0527 19.0824 87.7076 19.3423C87.3624 19.6023 87.1003 19.9666 86.9213 20.4354C86.7466 20.9041 86.6593 21.456 86.6593 22.0909ZM95.7424 27V13.9091H104.129V15.897H98.1138V19.451H103.553V21.4389H98.1138V27H95.7424ZM106.046 27V17.1818H108.29V18.8182H108.392C108.571 18.2514 108.878 17.8146 109.313 17.5078C109.752 17.1967 110.252 17.0412 110.815 17.0412C110.943 17.0412 111.085 17.0476 111.243 17.0604C111.405 17.0689 111.539 17.0838 111.646 17.1051V19.2337C111.548 19.1996 111.392 19.1697 111.179 19.1442C110.97 19.1143 110.768 19.0994 110.572 19.0994C110.15 19.0994 109.771 19.1911 109.434 19.3743C109.102 19.5533 108.84 19.8026 108.648 20.1222C108.456 20.4418 108.36 20.8104 108.36 21.228V27H106.046ZM117.061 27.1918C116.103 27.1918 115.272 26.9808 114.569 26.5589C113.865 26.1371 113.32 25.5469 112.932 24.7884C112.549 24.0298 112.357 23.1435 112.357 22.1293C112.357 21.1151 112.549 20.2266 112.932 19.4638C113.32 18.701 113.865 18.1087 114.569 17.6868C115.272 17.2649 116.103 17.054 117.061 17.054C118.02 17.054 118.851 17.2649 119.554 17.6868C120.257 18.1087 120.801 18.701 121.184 19.4638C121.572 20.2266 121.766 21.1151 121.766 22.1293C121.766 23.1435 121.572 24.0298 121.184 24.7884C120.801 25.5469 120.257 26.1371 119.554 26.5589C118.851 26.9808 118.02 27.1918 117.061 27.1918ZM117.074 25.3381C117.594 25.3381 118.029 25.1953 118.378 24.9098C118.728 24.62 118.988 24.2322 119.158 23.7464C119.333 23.2607 119.42 22.7195 119.42 22.1229C119.42 21.522 119.333 20.9787 119.158 20.4929C118.988 20.0028 118.728 19.6129 118.378 19.3232C118.029 19.0334 117.594 18.8885 117.074 18.8885C116.542 18.8885 116.098 19.0334 115.745 19.3232C115.395 19.6129 115.133 20.0028 114.958 20.4929C114.788 20.9787 114.703 21.522 114.703 22.1229C114.703 22.7195 114.788 23.2607 114.958 23.7464C115.133 24.2322 115.395 24.62 115.745 24.9098C116.098 25.1953 116.542 25.3381 117.074 25.3381ZM128 30.8864C127.169 30.8864 126.455 30.7734 125.858 30.5476C125.262 30.326 124.782 30.0277 124.42 29.6527C124.058 29.2777 123.807 28.8622 123.666 28.4062L125.75 27.9013C125.844 28.093 125.98 28.2827 126.159 28.4702C126.338 28.6619 126.579 28.8196 126.881 28.9432C127.188 29.071 127.574 29.1349 128.038 29.1349C128.694 29.1349 129.238 28.9751 129.668 28.6555C130.099 28.3402 130.314 27.8203 130.314 27.0959V25.2358H130.199C130.079 25.4744 129.905 25.7195 129.675 25.9709C129.449 26.2223 129.148 26.4332 128.773 26.6037C128.403 26.7741 127.936 26.8594 127.373 26.8594C126.619 26.8594 125.935 26.6825 125.322 26.3288C124.712 25.9709 124.226 25.4382 123.864 24.7308C123.506 24.0192 123.327 23.1286 123.327 22.0589C123.327 20.9808 123.506 20.071 123.864 19.3295C124.226 18.5838 124.714 18.0192 125.328 17.6357C125.942 17.2479 126.626 17.054 127.38 17.054C127.955 17.054 128.428 17.152 128.799 17.348C129.174 17.5398 129.472 17.772 129.694 18.0447C129.915 18.3132 130.084 18.5668 130.199 18.8054H130.327V17.1818H132.608V27.1598C132.608 27.9993 132.408 28.6939 132.008 29.2436C131.607 29.7933 131.059 30.2045 130.365 30.4773C129.67 30.75 128.882 30.8864 128 30.8864ZM128.019 25.044C128.509 25.044 128.927 24.9247 129.272 24.6861C129.617 24.4474 129.879 24.1044 130.058 23.657C130.237 23.2095 130.327 22.6726 130.327 22.0462C130.327 21.4283 130.237 20.8871 130.058 20.4226C129.883 19.9581 129.623 19.598 129.278 19.3423C128.937 19.0824 128.518 18.9524 128.019 18.9524C127.503 18.9524 127.073 19.0866 126.728 19.3551C126.383 19.6236 126.123 19.9922 125.948 20.4609C125.773 20.9254 125.686 21.4538 125.686 22.0462C125.686 22.647 125.773 23.1733 125.948 23.625C126.127 24.0724 126.389 24.4219 126.734 24.6733C127.084 24.9205 127.512 25.044 128.019 25.044Z" fill="#0F172A"/>
</svg>
