<svg width="652" height="332" viewBox="0 0 652 332" fill="none" xmlns="http://www.w3.org/2000/svg">
<rect width="652" height="332" fill="white"/>
<rect x="133.5" y="164.9" width="338.6" height="42.2" rx="5.5" fill="white"/>
<rect x="133.5" y="164.9" width="338.6" height="42.2" rx="5.5" stroke="#E2E8F0"/>
<path d="M159.8 186.533H156.467" stroke="#09090B" stroke-width="1.33333" stroke-linecap="round" stroke-linejoin="round"/>
<path d="M156.467 187.867V185.534C156.467 185.092 156.642 184.668 156.955 184.355C157.268 184.043 157.691 183.867 158.133 183.867C158.575 183.867 158.999 184.043 159.312 184.355C159.625 184.668 159.8 185.092 159.8 185.534V187.867" stroke="#09090B" stroke-width="1.33333" stroke-linecap="round" stroke-linejoin="round"/>
<path d="M148.8 185.867H152.8" stroke="#09090B" stroke-width="1.33333" stroke-linecap="round" stroke-linejoin="round"/>
<path d="M147.8 187.867L150.8 181.867L153.8 187.867" stroke="#09090B" stroke-width="1.33333" stroke-linecap="round" stroke-linejoin="round"/>
<path d="M204.133 185.201C204.84 185.201 205.519 184.92 206.019 184.419C206.519 183.919 206.8 183.241 206.8 182.534C206.8 181.827 206.519 181.148 206.019 180.648C205.519 180.148 204.84 179.867 204.133 179.867H198.8V185.201" stroke="#09090B" stroke-width="1.33333" stroke-linecap="round" stroke-linejoin="round"/>
<path d="M204.8 190.534C205.507 190.534 206.185 190.253 206.685 189.752C207.186 189.252 207.466 188.574 207.466 187.867C207.466 187.16 207.186 186.481 206.685 185.981C206.185 185.481 205.507 185.2 204.8 185.2H198.8V190.534H204.8Z" stroke="#09090B" stroke-width="1.33333" stroke-linecap="round" stroke-linejoin="round"/>
<path d="M247.467 179.867H241.467" stroke="#09090B" stroke-width="1.33333" stroke-linecap="round" stroke-linejoin="round"/>
<path d="M244.133 190.533H238.133" stroke="#09090B" stroke-width="1.33333" stroke-linecap="round" stroke-linejoin="round"/>
<path d="M244.8 179.867L240.8 190.534" stroke="#09090B" stroke-width="1.33333" stroke-linecap="round" stroke-linejoin="round"/>
<path d="M278.8 179.867V183.867C278.8 184.928 279.221 185.945 279.971 186.696C280.722 187.446 281.739 187.867 282.8 187.867C283.861 187.867 284.878 187.446 285.628 186.696C286.378 185.945 286.8 184.928 286.8 183.867V179.867" stroke="#09090B" stroke-width="1.33333" stroke-linecap="round" stroke-linejoin="round"/>
<path d="M277.467 190.533H288.133" stroke="#09090B" stroke-width="1.33333" stroke-linecap="round" stroke-linejoin="round"/>
<path d="M325.467 179.867H320.8C320.48 179.867 320.164 179.944 319.88 180.091C319.596 180.238 319.351 180.451 319.166 180.712C318.981 180.973 318.862 181.275 318.818 181.592C318.774 181.909 318.807 182.232 318.913 182.534" stroke="#09090B" stroke-width="1.33333" stroke-linecap="round" stroke-linejoin="round"/>
<path d="M324.133 185.2C324.84 185.2 325.519 185.481 326.019 185.981C326.519 186.481 326.8 187.16 326.8 187.867C326.8 188.574 326.519 189.252 326.019 189.752C325.519 190.253 324.84 190.534 324.133 190.534H318.8" stroke="#09090B" stroke-width="1.33333" stroke-linecap="round" stroke-linejoin="round"/>
<path d="M317.467 185.2H328.133" stroke="#09090B" stroke-width="1.33333" stroke-linecap="round" stroke-linejoin="round"/>
<path d="M369.133 181.2H377.799" stroke="#09090B" stroke-width="1.33333" stroke-linecap="round" stroke-linejoin="round"/>
<path d="M369.133 185.2H377.799" stroke="#09090B" stroke-width="1.33333" stroke-linecap="round" stroke-linejoin="round"/>
<path d="M369.133 189.2H377.799" stroke="#09090B" stroke-width="1.33333" stroke-linecap="round" stroke-linejoin="round"/>
<path d="M365.8 181.2H365.806" stroke="#09090B" stroke-width="1.33333" stroke-linecap="round" stroke-linejoin="round"/>
<path d="M365.8 185.2H365.806" stroke="#09090B" stroke-width="1.33333" stroke-linecap="round" stroke-linejoin="round"/>
<path d="M365.8 189.2H365.806" stroke="#09090B" stroke-width="1.33333" stroke-linecap="round" stroke-linejoin="round"/>
<path d="M415.8 187.867L418.466 185.2L415.8 182.533" stroke="#09090B" stroke-width="1.33333" stroke-linecap="round" stroke-linejoin="round"/>
<path d="M407.799 182.533L405.133 185.2L407.799 187.867" stroke="#09090B" stroke-width="1.33333" stroke-linecap="round" stroke-linejoin="round"/>
<path d="M413.466 179.867L410.133 190.534" stroke="#09090B" stroke-width="1.33333" stroke-linecap="round" stroke-linejoin="round"/>
<g filter="url(#filter0_dd_2032_38073)">
<rect x="435.8" y="169.2" width="32" height="32" rx="6" fill="black" fill-opacity="0.9" shape-rendering="crispEdges"/>
<path d="M445.133 183.867V185.867" stroke="white" stroke-width="1.33333" stroke-linecap="round" stroke-linejoin="round"/>
<path d="M447.8 181.2V188.534" stroke="white" stroke-width="1.33333" stroke-linecap="round" stroke-linejoin="round"/>
<path d="M450.467 179.2V191.2" stroke="white" stroke-width="1.33333" stroke-linecap="round" stroke-linejoin="round"/>
<path d="M453.133 182.533V187.2" stroke="white" stroke-width="1.33333" stroke-linecap="round" stroke-linejoin="round"/>
<path d="M455.8 180.533V189.2" stroke="white" stroke-width="1.33333" stroke-linecap="round" stroke-linejoin="round"/>
<path d="M458.467 183.867V185.867" stroke="white" stroke-width="1.33333" stroke-linecap="round" stroke-linejoin="round"/>
</g>
<g filter="url(#filter1_d_2032_38073)">
<rect x="384.8" y="125" width="134" height="34" rx="6" fill="black" shape-rendering="crispEdges"/>
<path d="M400.455 136.818V147H398.918V136.818H400.455ZM404.059 142.466V147H402.573V139.364H403.999V140.607H404.094C404.27 140.202 404.545 139.877 404.919 139.632C405.297 139.387 405.773 139.264 406.346 139.264C406.866 139.264 407.322 139.374 407.713 139.592C408.104 139.808 408.408 140.129 408.623 140.557C408.838 140.984 408.946 141.513 408.946 142.143V147H407.46V142.322C407.46 141.768 407.315 141.336 407.027 141.024C406.739 140.709 406.343 140.552 405.839 140.552C405.494 140.552 405.188 140.626 404.919 140.776C404.654 140.925 404.444 141.143 404.288 141.432C404.135 141.717 404.059 142.062 404.059 142.466ZM416.662 141.228L415.315 141.467C415.258 141.294 415.169 141.13 415.046 140.974C414.927 140.819 414.765 140.691 414.559 140.592C414.354 140.492 414.097 140.442 413.788 140.442C413.368 140.442 413.016 140.537 412.734 140.726C412.453 140.911 412.312 141.152 412.312 141.447C412.312 141.702 412.406 141.907 412.595 142.063C412.784 142.219 413.089 142.347 413.51 142.446L414.723 142.724C415.426 142.887 415.949 143.137 416.294 143.475C416.639 143.813 416.811 144.252 416.811 144.793C416.811 145.25 416.679 145.658 416.413 146.016C416.152 146.37 415.785 146.649 415.315 146.851C414.847 147.053 414.305 147.154 413.689 147.154C412.834 147.154 412.136 146.972 411.596 146.607C411.056 146.239 410.724 145.717 410.602 145.041L412.038 144.822C412.128 145.197 412.312 145.48 412.59 145.673C412.869 145.862 413.232 145.956 413.679 145.956C414.166 145.956 414.556 145.855 414.847 145.653C415.139 145.447 415.285 145.197 415.285 144.902C415.285 144.663 415.195 144.463 415.016 144.3C414.841 144.138 414.571 144.015 414.206 143.933L412.913 143.649C412.201 143.487 411.674 143.228 411.332 142.874C410.994 142.519 410.825 142.07 410.825 141.526C410.825 141.076 410.951 140.681 411.203 140.343C411.455 140.005 411.803 139.741 412.247 139.553C412.691 139.36 413.2 139.264 413.774 139.264C414.599 139.264 415.248 139.443 415.722 139.801C416.196 140.156 416.51 140.631 416.662 141.228ZM421.737 147.154C420.984 147.154 420.336 146.993 419.793 146.672C419.253 146.347 418.835 145.891 418.54 145.305C418.248 144.715 418.103 144.024 418.103 143.232C418.103 142.449 418.248 141.76 418.54 141.163C418.835 140.567 419.246 140.101 419.773 139.766C420.303 139.432 420.923 139.264 421.632 139.264C422.063 139.264 422.481 139.335 422.885 139.478C423.29 139.621 423.652 139.844 423.974 140.149C424.295 140.454 424.549 140.85 424.735 141.337C424.92 141.821 425.013 142.41 425.013 143.102V143.629H418.943V142.516H423.556C423.556 142.125 423.477 141.778 423.318 141.477C423.159 141.172 422.935 140.931 422.647 140.756C422.362 140.58 422.027 140.492 421.642 140.492C421.225 140.492 420.86 140.595 420.549 140.8C420.24 141.003 420.002 141.268 419.833 141.596C419.667 141.921 419.584 142.274 419.584 142.655V143.525C419.584 144.035 419.674 144.469 419.853 144.827C420.035 145.185 420.288 145.459 420.613 145.648C420.938 145.833 421.318 145.926 421.752 145.926C422.033 145.926 422.29 145.886 422.522 145.807C422.754 145.724 422.955 145.601 423.124 145.439C423.293 145.277 423.422 145.076 423.512 144.837L424.919 145.091C424.806 145.505 424.604 145.868 424.312 146.18C424.024 146.488 423.661 146.728 423.223 146.901C422.789 147.07 422.294 147.154 421.737 147.154ZM426.662 147V139.364H428.099V140.577H428.179C428.318 140.166 428.563 139.843 428.915 139.607C429.269 139.369 429.67 139.249 430.118 139.249C430.21 139.249 430.32 139.253 430.446 139.259C430.575 139.266 430.676 139.274 430.749 139.284V140.706C430.689 140.689 430.583 140.671 430.431 140.651C430.278 140.628 430.126 140.616 429.973 140.616C429.622 140.616 429.309 140.691 429.034 140.84C428.762 140.986 428.547 141.19 428.388 141.452C428.228 141.71 428.149 142.005 428.149 142.337V147H426.662ZM436.051 139.364V140.557H431.88V139.364H436.051ZM432.999 137.534H434.485V144.758C434.485 145.046 434.528 145.263 434.614 145.409C434.701 145.552 434.812 145.649 434.948 145.702C435.087 145.752 435.238 145.777 435.4 145.777C435.519 145.777 435.624 145.769 435.713 145.752C435.803 145.736 435.872 145.722 435.922 145.712L436.19 146.94C436.104 146.973 435.982 147.007 435.823 147.04C435.663 147.076 435.465 147.096 435.226 147.099C434.835 147.106 434.47 147.036 434.132 146.891C433.794 146.745 433.521 146.519 433.312 146.214C433.103 145.91 432.999 145.527 432.999 145.066V137.534ZM444.965 139.364V140.557H440.794V139.364H444.965ZM441.913 137.534H443.399V144.758C443.399 145.046 443.442 145.263 443.528 145.409C443.615 145.552 443.726 145.649 443.862 145.702C444.001 145.752 444.152 145.777 444.314 145.777C444.433 145.777 444.538 145.769 444.627 145.752C444.717 145.736 444.786 145.722 444.836 145.712L445.104 146.94C445.018 146.973 444.896 147.007 444.737 147.04C444.578 147.076 444.379 147.096 444.14 147.099C443.749 147.106 443.384 147.036 443.046 146.891C442.708 146.745 442.435 146.519 442.226 146.214C442.017 145.91 441.913 145.527 441.913 145.066V137.534ZM446.61 147V139.364H448.046V140.577H448.126C448.265 140.166 448.51 139.843 448.862 139.607C449.216 139.369 449.617 139.249 450.065 139.249C450.158 139.249 450.267 139.253 450.393 139.259C450.522 139.266 450.623 139.274 450.696 139.284V140.706C450.637 140.689 450.531 140.671 450.378 140.651C450.226 140.628 450.073 140.616 449.921 140.616C449.569 140.616 449.256 140.691 448.981 140.84C448.709 140.986 448.494 141.19 448.335 141.452C448.176 141.71 448.096 142.005 448.096 142.337V147H446.61ZM454.137 147.169C453.653 147.169 453.215 147.08 452.824 146.901C452.433 146.718 452.123 146.455 451.894 146.11C451.669 145.765 451.556 145.343 451.556 144.842C451.556 144.411 451.639 144.057 451.805 143.778C451.971 143.5 452.194 143.28 452.476 143.117C452.758 142.955 453.073 142.832 453.421 142.749C453.769 142.666 454.123 142.603 454.485 142.56C454.942 142.507 455.313 142.464 455.598 142.431C455.883 142.395 456.09 142.337 456.22 142.257C456.349 142.178 456.414 142.048 456.414 141.869V141.835C456.414 141.4 456.291 141.064 456.046 140.825C455.804 140.587 455.443 140.467 454.962 140.467C454.461 140.467 454.067 140.578 453.779 140.8C453.494 141.019 453.296 141.263 453.187 141.531L451.79 141.213C451.956 140.749 452.198 140.375 452.516 140.089C452.837 139.801 453.207 139.592 453.625 139.463C454.042 139.33 454.481 139.264 454.942 139.264C455.247 139.264 455.57 139.301 455.911 139.374C456.256 139.443 456.578 139.572 456.876 139.761C457.178 139.95 457.425 140.22 457.617 140.572C457.809 140.92 457.905 141.372 457.905 141.929V147H456.453V145.956H456.394C456.298 146.148 456.153 146.337 455.961 146.523C455.769 146.708 455.522 146.862 455.22 146.985C454.919 147.108 454.558 147.169 454.137 147.169ZM454.46 145.976C454.871 145.976 455.222 145.895 455.514 145.732C455.809 145.57 456.032 145.358 456.185 145.096C456.341 144.831 456.419 144.547 456.419 144.246V143.261C456.366 143.314 456.263 143.364 456.11 143.411C455.961 143.454 455.791 143.492 455.598 143.525C455.406 143.555 455.219 143.583 455.036 143.609C454.854 143.633 454.702 143.652 454.579 143.669C454.291 143.705 454.027 143.767 453.789 143.853C453.553 143.939 453.364 144.063 453.222 144.226C453.083 144.385 453.013 144.597 453.013 144.862C453.013 145.23 453.149 145.509 453.421 145.697C453.693 145.883 454.039 145.976 454.46 145.976ZM461.372 142.466V147H459.885V139.364H461.312V140.607H461.406C461.582 140.202 461.857 139.877 462.232 139.632C462.609 139.387 463.085 139.264 463.658 139.264C464.179 139.264 464.635 139.374 465.026 139.592C465.417 139.808 465.72 140.129 465.935 140.557C466.151 140.984 466.259 141.513 466.259 142.143V147H464.772V142.322C464.772 141.768 464.628 141.336 464.34 141.024C464.051 140.709 463.655 140.552 463.151 140.552C462.807 140.552 462.5 140.626 462.232 140.776C461.966 140.925 461.756 141.143 461.6 141.432C461.448 141.717 461.372 142.062 461.372 142.466ZM473.975 141.228L472.627 141.467C472.571 141.294 472.481 141.13 472.359 140.974C472.239 140.819 472.077 140.691 471.872 140.592C471.666 140.492 471.409 140.442 471.101 140.442C470.68 140.442 470.329 140.537 470.047 140.726C469.765 140.911 469.624 141.152 469.624 141.447C469.624 141.702 469.719 141.907 469.908 142.063C470.097 142.219 470.402 142.347 470.823 142.446L472.036 142.724C472.738 142.887 473.262 143.137 473.607 143.475C473.951 143.813 474.124 144.252 474.124 144.793C474.124 145.25 473.991 145.658 473.726 146.016C473.464 146.37 473.098 146.649 472.627 146.851C472.16 147.053 471.618 147.154 471.002 147.154C470.146 147.154 469.449 146.972 468.908 146.607C468.368 146.239 468.037 145.717 467.914 145.041L469.351 144.822C469.44 145.197 469.624 145.48 469.903 145.673C470.181 145.862 470.544 145.956 470.992 145.956C471.479 145.956 471.868 145.855 472.16 145.653C472.452 145.447 472.597 145.197 472.597 144.902C472.597 144.663 472.508 144.463 472.329 144.3C472.153 144.138 471.883 144.015 471.519 143.933L470.226 143.649C469.513 143.487 468.986 143.228 468.645 142.874C468.307 142.519 468.138 142.07 468.138 141.526C468.138 141.076 468.264 140.681 468.516 140.343C468.768 140.005 469.116 139.741 469.56 139.553C470.004 139.36 470.513 139.264 471.086 139.264C471.911 139.264 472.561 139.443 473.035 139.801C473.509 140.156 473.822 140.631 473.975 141.228ZM478.975 147.154C478.236 147.154 477.599 146.987 477.066 146.652C476.535 146.314 476.128 145.848 475.843 145.255C475.558 144.662 475.415 143.982 475.415 143.217C475.415 142.441 475.561 141.757 475.853 141.163C476.144 140.567 476.555 140.101 477.085 139.766C477.616 139.432 478.241 139.264 478.96 139.264C479.54 139.264 480.057 139.372 480.511 139.587C480.965 139.799 481.331 140.098 481.61 140.482C481.891 140.867 482.059 141.316 482.112 141.83H480.665C480.585 141.472 480.403 141.163 480.118 140.905C479.836 140.646 479.459 140.517 478.985 140.517C478.57 140.517 478.207 140.626 477.896 140.845C477.588 141.061 477.347 141.369 477.175 141.77C477.003 142.168 476.916 142.638 476.916 143.182C476.916 143.739 477.001 144.219 477.17 144.624C477.339 145.028 477.578 145.341 477.886 145.563C478.197 145.785 478.564 145.896 478.985 145.896C479.266 145.896 479.522 145.845 479.75 145.742C479.982 145.636 480.176 145.485 480.332 145.29C480.491 145.094 480.602 144.859 480.665 144.584H482.112C482.059 145.078 481.898 145.518 481.63 145.906C481.361 146.294 481.001 146.599 480.551 146.821C480.103 147.043 479.578 147.154 478.975 147.154ZM483.701 147V139.364H485.138V140.577H485.218C485.357 140.166 485.602 139.843 485.954 139.607C486.308 139.369 486.709 139.249 487.157 139.249C487.249 139.249 487.359 139.253 487.485 139.259C487.614 139.266 487.715 139.274 487.788 139.284V140.706C487.728 140.689 487.622 140.671 487.47 140.651C487.317 140.628 487.165 140.616 487.013 140.616C486.661 140.616 486.348 140.691 486.073 140.84C485.801 140.986 485.586 141.19 485.427 141.452C485.267 141.71 485.188 142.005 485.188 142.337V147H483.701ZM489.074 147V139.364H490.561V147H489.074ZM489.825 138.185C489.567 138.185 489.345 138.099 489.159 137.927C488.977 137.751 488.886 137.542 488.886 137.3C488.886 137.055 488.977 136.846 489.159 136.674C489.345 136.498 489.567 136.411 489.825 136.411C490.084 136.411 490.304 136.498 490.486 136.674C490.672 136.846 490.765 137.055 490.765 137.3C490.765 137.542 490.672 137.751 490.486 137.927C490.304 138.099 490.084 138.185 489.825 138.185ZM492.561 149.864V139.364H494.013V140.602H494.137C494.223 140.442 494.347 140.259 494.51 140.05C494.672 139.841 494.897 139.659 495.186 139.503C495.474 139.344 495.855 139.264 496.329 139.264C496.946 139.264 497.496 139.42 497.98 139.732C498.464 140.043 498.843 140.492 499.118 141.079C499.397 141.665 499.536 142.371 499.536 143.197C499.536 144.022 499.398 144.73 499.123 145.32C498.848 145.906 498.47 146.359 497.99 146.677C497.509 146.992 496.961 147.149 496.344 147.149C495.88 147.149 495.501 147.071 495.206 146.915C494.914 146.76 494.685 146.577 494.52 146.369C494.354 146.16 494.226 145.974 494.137 145.812H494.047V149.864H492.561ZM494.017 143.182C494.017 143.719 494.095 144.189 494.251 144.594C494.407 144.998 494.632 145.315 494.927 145.543C495.222 145.769 495.584 145.881 496.011 145.881C496.455 145.881 496.826 145.764 497.125 145.528C497.423 145.29 497.648 144.967 497.801 144.559C497.957 144.151 498.035 143.692 498.035 143.182C498.035 142.678 497.958 142.226 497.806 141.825C497.657 141.424 497.431 141.107 497.13 140.875C496.831 140.643 496.459 140.527 496.011 140.527C495.58 140.527 495.216 140.638 494.917 140.86C494.622 141.082 494.399 141.392 494.246 141.79C494.094 142.187 494.017 142.652 494.017 143.182ZM504.766 139.364V140.557H500.595V139.364H504.766ZM501.714 137.534H503.2V144.758C503.2 145.046 503.243 145.263 503.329 145.409C503.415 145.552 503.526 145.649 503.662 145.702C503.802 145.752 503.952 145.777 504.115 145.777C504.234 145.777 504.339 145.769 504.428 145.752C504.517 145.736 504.587 145.722 504.637 145.712L504.905 146.94C504.819 146.973 504.696 147.007 504.537 147.04C504.378 147.076 504.179 147.096 503.941 147.099C503.55 147.106 503.185 147.036 502.847 146.891C502.509 146.745 502.236 146.519 502.027 146.214C501.818 145.91 501.714 145.527 501.714 145.066V137.534Z" fill="white"/>
</g>
<defs>
<filter id="filter0_dd_2032_38073" x="431.8" y="165.2" width="40" height="40" filterUnits="userSpaceOnUse" color-interpolation-filters="sRGB">
<feFlood flood-opacity="0" result="BackgroundImageFix"/>
<feColorMatrix in="SourceAlpha" type="matrix" values="0 0 0 0 0 0 0 0 0 0 0 0 0 0 0 0 0 0 127 0" result="hardAlpha"/>
<feMorphology radius="4" operator="dilate" in="SourceAlpha" result="effect1_dropShadow_2032_38073"/>
<feOffset/>
<feComposite in2="hardAlpha" operator="out"/>
<feColorMatrix type="matrix" values="0 0 0 0 0.0862745 0 0 0 0 0.639216 0 0 0 0 0.290196 0 0 0 1 0"/>
<feBlend mode="normal" in2="BackgroundImageFix" result="effect1_dropShadow_2032_38073"/>
<feColorMatrix in="SourceAlpha" type="matrix" values="0 0 0 0 0 0 0 0 0 0 0 0 0 0 0 0 0 0 127 0" result="hardAlpha"/>
<feMorphology radius="2" operator="dilate" in="SourceAlpha" result="effect2_dropShadow_2032_38073"/>
<feOffset/>
<feComposite in2="hardAlpha" operator="out"/>
<feColorMatrix type="matrix" values="0 0 0 0 1 0 0 0 0 1 0 0 0 0 1 0 0 0 1 0"/>
<feBlend mode="normal" in2="effect1_dropShadow_2032_38073" result="effect2_dropShadow_2032_38073"/>
<feBlend mode="normal" in="SourceGraphic" in2="effect2_dropShadow_2032_38073" result="shape"/>
</filter>
<filter id="filter1_d_2032_38073" x="380.8" y="123" width="142" height="42" filterUnits="userSpaceOnUse" color-interpolation-filters="sRGB">
<feFlood flood-opacity="0" result="BackgroundImageFix"/>
<feColorMatrix in="SourceAlpha" type="matrix" values="0 0 0 0 0 0 0 0 0 0 0 0 0 0 0 0 0 0 127 0" result="hardAlpha"/>
<feOffset dy="2"/>
<feGaussianBlur stdDeviation="2"/>
<feComposite in2="hardAlpha" operator="out"/>
<feColorMatrix type="matrix" values="0 0 0 0 0.117647 0 0 0 0 0.160784 0 0 0 0 0.231373 0 0 0 0.25 0"/>
<feBlend mode="normal" in2="BackgroundImageFix" result="effect1_dropShadow_2032_38073"/>
<feBlend mode="normal" in="SourceGraphic" in2="effect1_dropShadow_2032_38073" result="shape"/>
</filter>
</defs>
</svg>
